<svg version="1.2" xmlns="http://www.w3.org/2000/svg" viewBox="0 0 338 267" width="338" height="267">
	<title>mastercard</title>
	<defs>
		<clipPath clipPathUnits="userSpaceOnUse" id="cp1">
			<path d="m16.76 14h308.48v240h-308.48z"/>
		</clipPath>
	</defs>
	<style>
		.s0 { fill: #231f20 } 
		.s1 { fill: #f79410 } 
		.s2 { fill: #ff5f00 } 
		.s3 { fill: #eb001b } 
	</style>
	<g id="Clip-Path" clip-path="url(#cp1)">
		<g>
			<path fill-rule="evenodd" class="s0" d="m319.6 249c0.7 0 1.3 0.3 1.8 0.7q0.4 0.4 0.5 0.8c0.3 0.7 0.3 1.4 0 2q-0.1 0.4-0.5 0.8-0.4 0.3-0.8 0.5-0.5 0.2-1 0.2-0.5 0-1-0.2-0.5-0.2-0.8-0.5-0.4-0.4-0.6-0.8c-0.2-0.7-0.2-1.4 0-2q0.2-0.4 0.6-0.8 0.3-0.3 0.8-0.5 0.5-0.2 1-0.2m0 4.4q0.4 0.1 0.7-0.1 0.4-0.2 0.7-0.4 0.2-0.3 0.4-0.6c0.2-0.5 0.2-1.1 0-1.6q-0.2-0.3-0.4-0.6-0.3-0.3-0.7-0.4-0.3-0.2-0.7-0.1-0.4 0-0.8 0.1-0.3 0.1-0.6 0.4c-0.6 0.6-0.7 1.4-0.4 2.2q0.1 0.3 0.4 0.6 0.3 0.3 0.6 0.4 0.4 0.2 0.8 0.2zm0.1-3.2q0.4 0 0.7 0.2c0.2 0.2 0.3 0.4 0.3 0.6q0 0.3-0.2 0.5-0.3 0.2-0.6 0.2l0.8 0.9h-0.6l-0.7-0.9h-0.2v0.9h-0.5v-2.4c0 0 1.1 0 1 0zm-0.5 0.5v0.6h0.5q0.2 0 0.3-0.1 0.2-0.1 0.2-0.2 0-0.2-0.2-0.3-0.1-0.1-0.3 0c0 0-0.5 0-0.5 0zm-215.3 1.9h-5.5v-3.1c-1.7 2.3-4.4 3.7-8 3.7-7.1 0-12.7-5.6-12.7-13.3 0-7.7 5.6-13.3 12.7-13.3 3.6 0 6.3 1.4 8 3.7v-3.1h5.5v12.7c0 0 0 12.7 0 12.7zm-12.8-4.6c4.5 0 7.6-3.5 7.6-8.1 0-4.6-3.1-8.1-7.6-8.1-4.8 0-7.7 3.6-7.7 8.1 0 4.4 2.9 8.1 7.7 8.1zm219.3 4.6h-5.5v-3.1c-1.7 2.3-4.4 3.7-8 3.7-7.1 0-12.7-5.6-12.7-13.3 0-7.7 5.6-13.3 12.7-13.3 3.6 0 6.3 1.4 8 3.7v-13.2h5.5zm-12.8-4.6c4.6 0 7.6-3.5 7.6-8.1 0-4.6-3-8.1-7.6-8.1-4.8 0-7.7 3.7-7.7 8.1 0 4.5 2.9 8.1 7.7 8.1zm-113.2-8.1c0 0.7-0.1 1.4-0.1 2.1h-18.8c0.8 4.6 4 6.2 7.5 6.2 2.6 0 5.3-0.9 7.4-2.6l2.7 4c-3.1 2.6-6.6 3.6-10.4 3.6-7.6 0-13-5.3-13-13.3 0-7.9 5.2-13.3 12.6-13.3 7.1 0 12 5.4 12.1 13.3zm-18.9-2.2h13.1c-0.5-3.9-2.8-6.2-6.4-6.2-3.9 0-6.1 2.5-6.7 6.2zm93.8 14.9h-5.5v-3.1c-1.8 2.3-4.4 3.7-8 3.7-7.1 0-12.7-5.6-12.7-13.3 0-7.7 5.6-13.3 12.7-13.3 3.6 0 6.2 1.4 8 3.7v-3.1h5.5v12.7c0 0 0 12.7 0 12.7zm-12.8-4.6c4.5 0 7.6-3.5 7.6-8.1 0-4.6-3.1-8.1-7.6-8.1-4.8 0-7.7 3.6-7.7 8.1 0 4.4 2.9 8.1 7.7 8.1zm-25.3-21.4c3.8 0 6.4 0.8 9.1 3l-2.6 4.5c-2.1-1.5-4.3-2.3-6.7-2.3-4.3 0-7.6 3.2-7.6 8.1 0 4.9 3.3 8 7.6 8.1 2.4 0 4.6-0.8 6.7-2.3l2.6 4.5c-2.7 2.1-5.3 3-9.1 3-8.1 0-13.5-5.6-13.5-13.3 0-7.7 5.4-13.3 13.5-13.3zm61.4 0.7l-1.7 5.2c-1.1-0.5-2.3-0.7-3.4-0.7-3.6 0-5.4 2.4-5.4 6.6v14.2h-5.5v-25.4h5.4v3.1c1.4-2.2 3.5-3.7 6.7-3.7 1.1 0 2.7 0.2 3.9 0.7zm-151.5 2l-2.3 4.4c-1.6-0.9-4.7-2.2-7.9-2.2-3.1 0-4.9 1.2-4.9 3 0 1.7 2 2.2 4.3 2.5l2.6 0.4c5.5 0.8 8.9 3.1 8.9 7.5 0 4.9-4.3 8.3-11.6 8.3-4.1 0-7.9-1.1-10.9-3.3l2.6-4.3c1.8 1.5 4.6 2.7 8.4 2.7 3.7 0 5.7-1.1 5.7-3.1 0-1.4-1.4-2.2-4.4-2.7l-2.6-0.3c-5.7-0.8-8.7-3.4-8.7-7.5 0-5 4.1-8.1 10.5-8.1 4 0 7.7 0.9 10.3 2.7zm75-2l-1.7 5.2c-1.1-0.5-2.3-0.7-3.5-0.7-3.6 0-5.4 2.4-5.4 6.6v14.1h-5.5v-25.3h5.5v3.1c1.4-2.2 3.5-3.7 6.6-3.7 1.2 0 2.7 0.2 4 0.7zm-50.9 5h-9v11.4c0 2.5 0.9 4.2 3.6 4.2 1.5 0 3.3-0.4 4.9-1.4l1.6 4.7c-1.8 1.2-4.5 2-6.9 2-6.5 0-8.8-3.5-8.8-9.4v-11.5h-5.1v-5.1h5.1v-7.6h5.6v7.6h9zm-87.9 20.3v-14.1c0-4.3-1.8-6.7-5.6-6.7-3.6 0-6.2 2.4-6.2 6.8v14h-5.5v-14.1c0-4.3-1.9-6.7-5.5-6.7-3.8 0-6.2 2.4-6.2 6.8v14h-5.6v-25.3h5.5v3.1c2.1-2.9 4.7-3.7 7.4-3.7 3.9 0 6.7 1.7 8.4 4.5 2.3-3.6 5.7-4.6 8.9-4.5 6.2 0 10 4 10 10v15.9z"/>
			<path fill-rule="evenodd" class="s1" d="m321.6 168.4v-2.8l-1 2.4h-0.7l-1.1-2.4v2.8h-0.7v-3.7h1l1.1 2.6 1.1-2.6h1v3.7c0 0-0.7 0-0.7 0zm-6.1 0v-3h-1.2v-0.7h3.1v0.7h-1.2v3z"/>
			<path fill-rule="evenodd" class="s2" d="m212.7 184.3h-83.4v-149.9h83.4z"/>
			<path fill-rule="evenodd" class="s3" d="m134.6 109.3c0-30.4 14.2-57.5 36.4-74.9-16.8-13.2-37.5-20.4-58.9-20.4-52.7 0-95.3 42.7-95.3 95.3 0 52.7 42.6 95.4 95.3 95.4 21.4 0 42.1-7.2 58.9-20.4-22.2-17.4-36.4-44.5-36.4-75z"/>
			<path fill-rule="evenodd" class="s1" d="m325.3 109.3c0 52.7-42.7 95.4-95.4 95.4-21.3 0-42.1-7.2-58.9-20.4 22.2-17.5 36.4-44.5 36.4-75 0-30.4-14.2-57.5-36.4-74.9 16.8-13.2 37.6-20.4 58.9-20.4 52.7 0 95.4 42.7 95.4 95.3z"/>
		</g>
	</g>
</svg>